# xmcd
#
# Track frame offsets: 
#        150
#        14485
#        29985
#        44304
#        59422
#        75918
#        93303
#        111415
#        130055
#        143220
#        156960
#        176667
#        197160
#        209633
#
# Disc length: 2957 seconds
#
# Revision: 1
# Processed by: cddbd v1.5.2PL0 Copyright (c) Steve Scherf et al.
# Submitted via: ExactAudioCopyFreeDBPlugin 1.0
#
DISCID=cc0b8b0e
DTITLE=Sugababes - Catfights And Spotlights
DYEAR=2008
DGENRE=R&B
TTITLE0=Girls
TTITLE1=You On A Good Day
TTITLE2=No Can Do
TTITLE3=Hanging On A Star
TTITLE4=Side Chick
TTITLE5=Unbreakable Heart
TTITLE6=Sunday Rain
TTITLE7=Every Heart Broken
TTITLE8=Beware
TTITLE9=Nothing's As Good As You
TTITLE10=Sound Of Goodbye
TTITLE11=Can We Call A Truce
TTITLE12=About You Now (Acoustic Version)
TTITLE13=She's Like A Star Feat. Taio Cruz
EXTD=YEAR: 2008
EXTT0=
EXTT1=
EXTT2=
EXTT3=
EXTT4=
EXTT5=
EXTT6=
EXTT7=
EXTT8=
EXTT9=
EXTT10=
EXTT11=
EXTT12=
EXTT13=
PLAYORDER=
